<svg version="1.1" id="Layer_1" xmlns="http://www.w3.org/2000/svg" xmlns:xlink="http://www.w3.org/1999/xlink" x="0px" y="0px"
	 width="100%" viewBox="0 0 307 151" enable-background="new 0 0 307 151" xml:space="preserve">
<path fill="#382AE1" opacity="1.000000" stroke="none" 
	d="
M1.000000,102.000000 
	C1.000000,68.360786 1.000000,34.721565 1.000000,1.041174 
	C103.222435,1.041174 205.444901,1.041174 308.000000,1.041174 
	C308.000000,43.686985 308.000000,86.374832 307.709625,129.355057 
	C306.940491,128.434631 306.461761,127.221825 305.989868,125.578392 
	C305.884766,122.979767 305.772766,120.811775 305.660797,118.643776 
	C305.164764,118.578232 304.668701,118.512688 304.172668,118.447136 
	C303.778656,119.647751 303.599670,120.988304 302.933563,122.011795 
	C302.184631,123.162521 300.996094,124.027138 299.642212,124.948929 
	C295.778809,123.534416 294.922577,120.824326 294.950226,117.309181 
	C295.056366,103.811287 294.997681,90.312057 294.989319,76.813332 
	C294.987213,73.400711 295.705902,69.935104 291.224609,68.067734 
	C289.917877,67.523209 289.602570,64.315262 289.082245,62.264854 
	C288.717743,60.828773 288.776672,59.285240 288.531464,56.467960 
	C287.541992,58.246933 287.179352,58.620602 287.127625,59.033264 
	C286.207275,66.370300 286.215393,66.371315 278.609344,66.028625 
	C267.516266,65.528816 265.003571,67.906792 265.003357,78.905052 
	C265.003326,81.904770 265.003326,84.904480 265.003326,87.904198 
	C265.003265,98.310387 264.981598,98.109154 254.486801,99.240433 
	C251.175598,99.597366 250.314941,98.425499 250.012161,95.685829 
	C249.902390,94.692749 249.547943,93.726707 249.185806,92.267387 
	C248.073883,94.898979 247.660828,98.184784 246.322983,98.618591 
	C241.969254,100.030357 241.987366,103.039566 241.996094,106.504448 
	C242.034302,121.669540 242.004883,136.834793 242.000000,152.000000 
	C240.933334,152.000000 239.866653,152.000000 238.401794,151.531357 
	C238.003571,144.920074 237.929901,138.776154 238.035873,132.635345 
	C238.085724,129.747269 237.598251,127.618668 234.030441,128.003998 
	C230.530029,128.382065 229.902100,126.394691 229.953644,123.435692 
	C230.069305,116.797127 230.203369,110.142891 229.838409,103.522125 
	C229.734924,101.645042 227.935837,99.861420 226.947937,97.671509 
	C226.981522,92.027412 226.981522,86.746750 226.981522,80.469185 
	C221.970688,81.039314 217.894333,81.503113 213.481873,81.867104 
	C210.709244,76.627190 206.012817,78.020386 201.927750,78.068047 
	C198.584808,78.107056 195.564880,78.172157 195.453598,73.268715 
	C194.088074,75.196243 193.310455,77.495110 192.144958,77.712280 
	C188.745148,78.345787 188.995972,80.551453 188.997635,82.905464 
	C189.001419,88.226135 188.805664,93.555763 189.062408,98.863792 
	C189.194153,101.587563 188.055511,102.732918 185.347260,103.225876 
	C180.805817,101.674881 176.534470,100.377129 172.471268,98.602730 
	C166.334396,95.922791 160.342697,92.910431 154.238892,89.688896 
	C154.611481,88.248001 155.034485,87.157547 155.857605,86.069824 
	C156.781021,86.164391 157.304291,86.256218 157.829987,86.380707 
	C157.832413,86.413376 158.048752,86.374435 158.440247,86.251221 
	C159.526962,85.695457 160.527451,85.430214 160.870361,84.804573 
	C164.434952,78.300858 168.091125,71.831589 171.232178,65.123466 
	C171.947495,63.595810 171.415344,60.727589 170.361679,59.266579 
	C166.878647,54.437050 163.353439,49.423820 156.913696,47.519054 
	C151.848618,43.735706 148.825027,39.190536 149.331741,32.669876 
	C146.473526,40.845238 146.249756,41.449474 141.703705,41.726437 
	C138.727295,41.907776 135.688049,41.058128 132.880585,40.410126 
	C134.678864,38.358906 136.273514,36.567806 138.039825,34.477028 
	C141.250381,28.926838 146.886429,30.346439 152.660721,29.346100 
	C150.307175,27.552134 148.871567,26.457859 147.722153,25.581722 
	C148.179306,24.184933 148.611023,22.865910 149.378021,21.559334 
	C150.105804,20.893631 150.498306,20.215485 150.861908,19.392738 
	C150.832993,19.248138 150.852219,18.953842 151.089142,18.911114 
	C151.119110,18.685373 150.912140,18.502361 150.464722,18.153322 
	C147.108276,15.292136 143.927032,15.486858 140.753387,17.841253 
	C137.478333,20.270891 134.243668,22.754988 130.655746,25.262508 
	C125.400887,28.909079 120.481613,32.508400 115.113403,36.089329 
	C111.020378,36.015713 107.476814,36.073570 108.619705,41.500542 
	C108.598976,41.574768 108.454300,41.627914 108.066109,41.484211 
	C106.264481,42.753029 104.851044,44.165550 103.428253,45.543892 
	C103.418892,45.509712 103.522270,45.426113 103.405243,45.834099 
	C102.028305,49.589584 100.768402,52.937088 99.196274,57.114124 
	C101.376892,55.712482 102.708527,54.856548 104.276245,54.301605 
	C106.326332,60.728020 108.140320,66.853439 109.607849,73.065201 
	C103.272995,74.829231 102.749115,79.161522 102.884552,84.593750 
	C103.228943,98.407059 103.051567,112.235405 102.897354,126.055664 
	C102.883621,127.286957 101.517677,128.503174 100.779739,129.726379 
	C100.185516,128.524246 99.111237,127.335388 99.077576,126.117767 
	C98.902763,119.794434 98.906227,113.462059 99.030052,107.136406 
	C99.087753,104.188416 98.060486,102.707664 94.990211,103.013153 
	C90.881401,103.421967 89.876884,101.184387 89.967789,97.540070 
	C90.125565,91.215927 90.191948,84.875801 89.876152,78.563408 
	C89.799385,77.028923 88.228622,74.430946 87.100929,74.291283 
	C82.994904,73.782799 83.288177,71.178055 82.916443,68.232170 
	C82.135117,62.040276 80.879204,55.908268 79.818092,49.751675 
	C79.387856,49.790012 78.957611,49.828350 78.527374,49.866684 
	C78.352409,50.915863 78.295929,52.003246 77.973007,53.004719 
	C77.553177,54.306763 76.863602,56.629143 76.391853,56.603996 
	C74.842743,56.521420 73.338112,55.579796 71.819221,54.961330 
	C70.235039,54.316273 68.683487,53.206844 67.066055,53.102795 
	C62.920013,52.836086 58.724243,53.276604 54.587852,52.943668 
	C50.186123,52.589375 48.876118,54.162804 48.908104,58.575977 
	C49.095181,84.386703 49.008636,110.199509 48.975952,136.011551 
	C48.973587,137.879715 48.665943,139.747498 48.500237,141.615448 
	C47.887554,141.739243 47.274876,141.863037 46.662197,141.986832 
	C46.112637,140.442398 45.150665,138.914200 45.089096,137.350555 
	C44.886147,132.196045 45.165756,127.021019 44.913071,121.870888 
	C44.835297,120.285728 43.700462,118.727921 42.950455,117.206482 
	C42.022873,115.324821 40.234467,113.531372 40.141155,111.634712 
	C39.797897,104.657280 40.166092,97.646019 39.873211,90.663994 
	C39.808048,89.110588 38.490452,87.007767 37.135868,86.238686 
	C34.508907,84.747185 31.446270,84.023026 28.168512,82.837845 
	C27.867754,85.242462 27.091818,88.771210 27.044754,92.309647 
	C26.885305,104.297661 27.054409,116.289963 26.907946,128.278305 
	C26.885931,130.080200 26.332756,132.947662 25.190348,133.459839 
	C21.951567,134.911835 21.941629,137.276886 21.973955,140.010056 
	C22.021221,144.006256 21.994938,148.003311 22.000000,152.000000 
	C20.285643,152.000000 18.571283,152.000000 16.421516,151.555817 
	C15.298511,139.110687 14.686605,127.104622 13.873284,115.112213 
	C13.653477,111.871147 13.569457,108.269203 12.100907,105.545914 
	C9.827991,101.331001 5.164294,101.823906 1.000000,102.000000 
M142.521378,38.152149 
	C142.830994,38.093430 143.140625,38.034714 143.450241,37.975998 
	C143.143021,37.905533 142.835815,37.835068 142.521378,38.152149 
z"/>
<path fill="#1E20CD" opacity="1.000000" stroke="none" 
	d="
M22.468658,152.000000 
	C21.994938,148.003311 22.021221,144.006256 21.973955,140.010056 
	C21.941629,137.276886 21.951567,134.911835 25.190348,133.459839 
	C26.332756,132.947662 26.885931,130.080200 26.907946,128.278305 
	C27.054409,116.289963 26.885305,104.297661 27.044754,92.309647 
	C27.091818,88.771210 27.867754,85.242462 28.168512,82.837845 
	C31.446270,84.023026 34.508907,84.747185 37.135868,86.238686 
	C38.490452,87.007767 39.808048,89.110588 39.873211,90.663994 
	C40.166092,97.646019 39.797897,104.657280 40.141155,111.634712 
	C40.234467,113.531372 42.022873,115.324821 42.950455,117.206482 
	C43.700462,118.727921 44.835297,120.285728 44.913071,121.870888 
	C45.165756,127.021019 44.886147,132.196045 45.089096,137.350555 
	C45.150665,138.914200 46.112637,140.442398 46.662197,141.986832 
	C47.274876,141.863037 47.887554,141.739243 48.500237,141.615448 
	C48.665943,139.747498 48.973587,137.879715 48.975952,136.011551 
	C49.008636,110.199509 49.095181,84.386703 48.908104,58.575977 
	C48.876118,54.162804 50.186123,52.589375 54.587852,52.943668 
	C58.724243,53.276604 62.920013,52.836086 67.066055,53.102795 
	C68.683487,53.206844 70.235039,54.316273 71.819221,54.961330 
	C73.338112,55.579796 74.842743,56.521420 76.391853,56.603996 
	C76.863602,56.629143 77.553177,54.306763 77.973007,53.004719 
	C78.295929,52.003246 78.352409,50.915863 78.527374,49.866684 
	C78.957611,49.828350 79.387856,49.790012 79.818092,49.751675 
	C80.879204,55.908268 82.135117,62.040276 82.916443,68.232170 
	C83.288177,71.178055 82.994904,73.782799 87.100929,74.291283 
	C88.228622,74.430946 89.799385,77.028923 89.876152,78.563408 
	C90.191948,84.875801 90.125565,91.215927 89.967789,97.540070 
	C89.876884,101.184387 90.881401,103.421967 94.990211,103.013153 
	C98.060486,102.707664 99.087753,104.188416 99.030052,107.136406 
	C98.906227,113.462059 98.902763,119.794434 99.077576,126.117767 
	C99.111237,127.335388 100.185516,128.524246 100.779739,129.726379 
	C101.517677,128.503174 102.883621,127.286957 102.897354,126.055664 
	C103.051567,112.235405 103.228943,98.407059 102.884552,84.593750 
	C102.749115,79.161522 103.272995,74.829231 109.860672,73.337006 
	C110.725418,74.467896 110.990883,75.413315 111.129303,76.662621 
	C112.390625,81.224113 113.865234,85.456413 115.126411,89.751381 
	C115.656723,91.557365 116.486076,93.775734 115.905655,95.331360 
	C109.076141,113.635834 107.288574,132.691711 107.000000,152.000000 
	C78.979103,152.000000 50.958210,152.000000 22.468658,152.000000 
z"/>
<path fill="#1F20CE" opacity="1.000000" stroke="none" 
	d="
M305.983032,126.009018 
	C306.461761,127.221825 306.940491,128.434631 307.709625,129.823715 
	C308.000000,137.296677 308.000000,144.593369 308.000000,152.000000 
	C286.312561,152.000000 264.624939,152.000000 242.468658,152.000000 
	C242.004883,136.834793 242.034302,121.669540 241.996094,106.504448 
	C241.987366,103.039566 241.969254,100.030357 246.322983,98.618591 
	C247.660828,98.184784 248.073883,94.898979 249.185806,92.267387 
	C249.547943,93.726707 249.902390,94.692749 250.012161,95.685829 
	C250.314941,98.425499 251.175598,99.597366 254.486801,99.240433 
	C264.981598,98.109154 265.003265,98.310387 265.003326,87.904198 
	C265.003326,84.904480 265.003326,81.904770 265.003357,78.905052 
	C265.003571,67.906792 267.516266,65.528816 278.609344,66.028625 
	C286.215393,66.371315 286.207275,66.370300 287.127625,59.033264 
	C287.179352,58.620602 287.541992,58.246933 288.531464,56.467960 
	C288.776672,59.285240 288.717743,60.828773 289.082245,62.264854 
	C289.602570,64.315262 289.917877,67.523209 291.224609,68.067734 
	C295.705902,69.935104 294.987213,73.400711 294.989319,76.813332 
	C294.997681,90.312057 295.056366,103.811287 294.950226,117.309181 
	C294.922577,120.824326 295.778809,123.534416 299.812805,125.229614 
	C302.221008,125.721390 304.102020,125.865204 305.983032,126.009018 
z"/>
<path fill="#75E9CA" opacity="1.000000" stroke="none" 
	d="
M107.468658,152.000000 
	C107.288574,132.691711 109.076141,113.635834 115.905655,95.331360 
	C116.486076,93.775734 115.656723,91.557365 115.126411,89.751381 
	C113.865234,85.456413 112.390625,81.224113 111.410233,76.484451 
	C116.629990,70.536034 121.441757,65.069664 126.575645,59.499878 
	C128.392120,61.572411 129.892365,63.744350 131.379349,65.925331 
	C133.207153,68.606232 135.023911,71.294670 137.008698,74.300545 
	C140.142593,78.619553 142.296234,82.792664 139.672150,88.109756 
	C137.263962,95.047905 136.891159,101.802078 140.390503,108.129326 
	C141.353867,109.871193 143.768402,111.864830 145.488647,111.839165 
	C147.231979,111.813171 149.906616,109.746925 150.471237,108.018318 
	C151.828232,103.863914 152.188492,99.383926 153.014191,94.767746 
	C153.108139,93.427933 153.138779,92.355682 153.437759,91.161346 
	C153.900513,90.705956 154.094910,90.372650 154.289307,90.039337 
	C160.342697,92.910431 166.334396,95.922791 172.471268,98.602730 
	C176.534470,100.377129 180.805817,101.674881 185.634064,103.438591 
	C187.527557,104.379204 188.770981,105.067245 190.185303,105.849846 
	C189.600449,107.053215 189.113815,108.054466 188.390961,109.250031 
	C184.755035,114.149971 181.355347,118.855614 177.671448,123.784973 
	C175.897614,124.359512 174.244385,125.292946 172.954987,124.930847 
	C170.772003,124.317795 168.781052,122.951141 166.777512,121.784317 
	C163.303192,119.760956 161.201523,121.135666 159.844940,124.456253 
	C159.106628,126.263443 158.476028,128.114731 157.734589,129.920547 
	C156.247589,133.542221 156.330750,136.775330 158.823883,140.166519 
	C161.545593,143.868637 163.634979,148.035645 166.000000,152.000000 
	C146.645767,152.000000 127.291542,152.000000 107.468658,152.000000 
z"/>
<path fill="#1F20CC" opacity="1.000000" stroke="none" 
	d="
M226.914352,98.034935 
	C227.935837,99.861420 229.734924,101.645042 229.838409,103.522125 
	C230.203369,110.142891 230.069305,116.797127 229.953644,123.435692 
	C229.902100,126.394691 230.530029,128.382065 234.030441,128.003998 
	C237.598251,127.618668 238.085724,129.747269 238.035873,132.635345 
	C237.929901,138.776154 238.003571,144.920074 238.001801,151.531357 
	C221.979111,152.000000 205.958206,152.000000 189.466980,151.531357 
	C189.073441,144.558365 189.150223,138.054031 189.564514,131.669067 
	C192.368042,133.113983 194.871658,134.374832 197.290421,135.781631 
	C200.208328,137.478729 202.615768,137.274872 204.319824,134.134048 
	C208.534744,126.365242 212.714676,118.577454 216.958557,110.478165 
	C217.524994,109.241264 218.041550,108.323494 218.965424,107.321045 
	C226.640778,106.706177 226.639633,106.706154 226.804947,99.023003 
	C226.812057,98.693016 226.876587,98.364265 226.914352,98.034935 
z"/>
<path fill="#1E20CE" opacity="1.000000" stroke="none" 
	d="
M1.000000,102.468658 
	C5.164294,101.823906 9.827991,101.331001 12.100907,105.545914 
	C13.569457,108.269203 13.653477,111.871147 13.873284,115.112213 
	C14.686605,127.104622 15.298511,139.110687 15.993054,151.555817 
	C11.033900,152.000000 6.067801,152.000000 1.000000,152.000000 
	C1.000000,135.645889 1.000000,119.291603 1.000000,102.468658 
z"/>
<path fill="#1F23CB" opacity="1.000000" stroke="none" 
	d="
M166.468277,152.000000 
	C163.634979,148.035645 161.545593,143.868637 158.823883,140.166519 
	C156.330750,136.775330 156.247589,133.542221 157.734589,129.920547 
	C158.476028,128.114731 159.106628,126.263443 159.844940,124.456253 
	C161.201523,121.135666 163.303192,119.760956 166.777512,121.784317 
	C168.781052,122.951141 170.772003,124.317795 172.954987,124.930847 
	C174.244385,125.292946 175.897614,124.359512 177.850006,124.008392 
	C178.886230,124.478821 179.459671,124.949554 179.992035,125.821640 
	C179.963776,129.003052 179.872910,131.788483 180.016739,134.561768 
	C180.180313,137.715988 178.545013,141.790833 183.913742,142.589584 
	C184.407730,142.663086 184.855087,144.524887 184.936462,145.586014 
	C185.099564,147.713120 184.994415,149.860809 185.000000,152.000000 
	C178.978851,152.000000 172.957703,152.000000 166.468277,152.000000 
z"/>
<path fill="#352ADD" opacity="1.000000" stroke="none" 
	d="
M185.399994,152.000000 
	C184.994415,149.860809 185.099564,147.713120 184.936462,145.586014 
	C184.855087,144.524887 184.407730,142.663086 183.913742,142.589584 
	C178.545013,141.790833 180.180313,137.715988 180.016739,134.561768 
	C179.872910,131.788483 179.963776,129.003052 180.338898,125.957306 
	C183.560211,127.644318 186.393616,129.597000 189.227020,131.549683 
	C189.150223,138.054031 189.073441,144.558365 188.998322,151.531357 
	C187.933334,152.000000 186.866653,152.000000 185.399994,152.000000 
z"/>
<path fill="#F8F8F8" opacity="1.000000" stroke="none" 
	d="
M140.016190,87.914406 
	C142.296234,82.792664 140.142593,78.619553 137.203430,73.934570 
	C137.564346,71.512077 138.013809,69.789284 138.203949,68.038338 
	C139.546204,55.677715 145.855896,48.875477 157.012543,47.844303 
	C163.353439,49.423820 166.878647,54.437050 170.361679,59.266579 
	C171.415344,60.727589 171.947495,63.595810 171.232178,65.123466 
	C168.091125,71.831589 164.434952,78.300858 160.870361,84.804573 
	C160.527451,85.430214 159.526962,85.695457 158.417389,86.213127 
	C158.003021,86.298248 157.827576,86.348045 157.827576,86.348045 
	C157.304291,86.256218 156.781021,86.164391 155.605194,85.785294 
	C152.465393,84.023605 149.978134,82.549179 147.392273,81.016304 
	C145.780396,86.588478 149.962006,88.658386 153.169418,91.283424 
	C153.138779,92.355682 153.108139,93.427933 152.657394,94.839317 
	C149.242310,98.232155 146.290100,97.627472 143.880508,94.634758 
	C142.279633,92.646461 141.283188,90.171516 140.016190,87.914406 
z"/>
<path fill="#232127" opacity="1.000000" stroke="none" 
	d="
M126.253525,59.603287 
	C121.441757,65.069664 116.629990,70.536034 111.537285,76.180573 
	C110.990883,75.413315 110.725418,74.467896 110.207123,73.250664 
	C108.140320,66.853439 106.326332,60.728020 104.275673,53.879784 
	C102.767410,48.263317 106.322639,45.218208 108.454300,41.627914 
	C108.454300,41.627914 108.598976,41.574768 108.908539,41.417892 
	C111.332848,39.543251 113.447594,37.825485 115.562340,36.107719 
	C120.481613,32.508400 125.400887,28.909079 130.465042,25.533649 
	C133.029343,28.763927 135.448746,31.770317 137.868164,34.776703 
	C136.273514,36.567806 134.678864,38.358906 132.609085,40.594814 
	C121.590561,50.173023 121.590561,50.173023 126.253525,59.603287 
z"/>
<path fill="#1F20CD" opacity="1.000000" stroke="none" 
	d="
M188.627197,109.055725 
	C189.113815,108.054466 189.600449,107.053215 190.185303,105.849846 
	C188.770981,105.067245 187.527557,104.379204 185.997314,103.478455 
	C188.055511,102.732918 189.194153,101.587563 189.062408,98.863792 
	C188.805664,93.555763 189.001419,88.226135 188.997635,82.905464 
	C188.995972,80.551453 188.745148,78.345787 192.144958,77.712280 
	C193.310455,77.495110 194.088074,75.196243 195.453598,73.268715 
	C195.564880,78.172157 198.584808,78.107056 201.927750,78.068047 
	C206.012817,78.020386 210.709244,76.627190 213.540405,82.313293 
	C213.914352,85.257744 213.893661,87.656197 213.521744,90.056557 
	C211.778091,91.054115 210.385666,92.049767 208.988190,93.017075 
	C208.983109,92.988731 209.040695,92.987366 208.674026,93.111618 
	C208.154083,96.867676 208.000809,100.499474 207.806000,104.435928 
	C207.661377,105.135063 207.558289,105.529541 207.138443,105.977188 
	C204.490250,108.508812 202.271744,111.111290 199.763550,113.395691 
	C198.932236,114.152832 197.001785,114.735420 196.184677,114.286354 
	C193.513947,112.818588 191.124695,110.838676 188.627197,109.055725 
z"/>
<path fill="#2122CA" opacity="1.000000" stroke="none" 
	d="
M126.575638,59.499870 
	C121.590561,50.173023 121.590561,50.173023 132.405457,40.854935 
	C135.688049,41.058128 138.727295,41.907776 141.703705,41.726437 
	C146.249756,41.449474 146.473526,40.845238 149.331741,32.669876 
	C148.825027,39.190536 151.848618,43.735706 156.913696,47.519054 
	C145.855896,48.875477 139.546204,55.677715 138.203949,68.038338 
	C138.013809,69.789284 137.564346,71.512077 137.040161,73.613869 
	C135.023911,71.294670 133.207153,68.606232 131.379349,65.925331 
	C129.892365,63.744350 128.392120,61.572411 126.575638,59.499870 
z"/>
<path fill="#F2F2F1" opacity="1.000000" stroke="none" 
	d="
M138.039825,34.477028 
	C135.448746,31.770317 133.029343,28.763927 130.800629,25.486401 
	C134.243668,22.754988 137.478333,20.270891 140.753387,17.841253 
	C143.927032,15.486858 147.108276,15.292136 150.442184,18.325705 
	C150.660110,18.664116 150.852219,18.953842 150.852219,18.953842 
	C150.852219,18.953842 150.832993,19.248138 150.527069,19.539158 
	C149.828339,20.402414 149.435532,20.974653 149.042725,21.546890 
	C148.611023,22.865910 148.179306,24.184933 147.722153,25.581722 
	C148.871567,26.457859 150.307175,27.552134 152.660721,29.346100 
	C146.886429,30.346439 141.250381,28.926838 138.039825,34.477028 
z"/>
<path fill="#27243A" opacity="1.000000" stroke="none" 
	d="
M213.872971,90.054642 
	C213.893661,87.656197 213.914352,85.257744 213.876511,82.413101 
	C217.894333,81.503113 221.970688,81.039314 226.981522,80.469185 
	C226.981522,86.746750 226.981522,92.027412 226.947937,97.671509 
	C226.876587,98.364265 226.812057,98.693016 226.804947,99.023003 
	C226.639633,106.706154 226.640778,106.706177 218.554169,107.118355 
	C216.596664,106.884438 215.457764,106.768532 214.193024,106.639816 
	C214.193024,105.342888 214.193024,104.199173 214.502899,103.047195 
	C215.225769,103.021675 215.638779,103.004433 216.499817,103.022293 
	C219.379730,103.057388 221.811615,103.057388 224.283401,103.057388 
	C224.283401,96.470039 224.283401,90.329941 224.283401,84.287994 
	C221.002472,84.287994 218.088120,84.287994 215.166382,84.287994 
	C215.166382,86.055779 215.166382,87.528625 215.097763,89.234177 
	C215.029144,89.466873 214.897385,89.933868 214.641388,89.964951 
	C214.214584,90.015572 214.043777,90.035103 213.872971,90.054642 
z"/>
<path fill="#333033" opacity="1.000000" stroke="none" 
	d="
M153.437759,91.161346 
	C149.962006,88.658386 145.780396,86.588478 147.392273,81.016304 
	C149.978134,82.549179 152.465393,84.023605 155.205078,85.782562 
	C155.034485,87.157547 154.611481,88.248001 154.238892,89.688904 
	C154.094910,90.372650 153.900513,90.705956 153.437759,91.161346 
z"/>
<path fill="#3A29E9" opacity="1.000000" stroke="none" 
	d="
M108.066109,41.484211 
	C106.322639,45.218208 102.767410,48.263317 104.039581,53.578789 
	C102.708527,54.856548 101.376892,55.712482 99.196274,57.114124 
	C100.768402,52.937088 102.028305,49.589584 103.416000,45.868851 
	C103.543785,45.495625 103.437614,45.578075 103.437614,45.578075 
	C104.851044,44.165550 106.264481,42.753029 108.066109,41.484211 
z"/>
<path fill="#2921D4" opacity="1.000000" stroke="none" 
	d="
M305.989868,125.578392 
	C304.102020,125.865204 302.221008,125.721390 300.169434,125.296906 
	C300.996094,124.027138 302.184631,123.162521 302.933563,122.011795 
	C303.599670,120.988304 303.778656,119.647751 304.172668,118.447136 
	C304.668701,118.512688 305.164764,118.578232 305.660797,118.643776 
	C305.772766,120.811775 305.884766,122.979767 305.989868,125.578392 
z"/>
<path fill="#3A29E9" opacity="1.000000" stroke="none" 
	d="
M115.113403,36.089325 
	C113.447594,37.825485 111.332848,39.543251 108.929260,41.343666 
	C107.476814,36.073570 111.020378,36.015713 115.113403,36.089325 
z"/>
<path fill="#3529DC" opacity="1.000000" stroke="none" 
	d="
M142.524994,37.958374 
	C142.835815,37.835068 143.143021,37.905533 143.450241,37.975998 
	C143.140625,38.034714 142.830994,38.093430 142.524994,37.958374 
z"/>
<path fill="#545768" opacity="1.000000" stroke="none" 
	d="
M149.378021,21.559336 
	C149.435532,20.974653 149.828339,20.402414 150.555969,19.683758 
	C150.498306,20.215485 150.105804,20.893631 149.378021,21.559336 
z"/>
<path fill="#333033" opacity="1.000000" stroke="none" 
	d="
M157.829987,86.380707 
	C157.827576,86.348045 158.003021,86.298248 158.025879,86.336342 
	C158.048752,86.374435 157.832413,86.413376 157.829987,86.380707 
z"/>
<path fill="#232127" opacity="1.000000" stroke="none" 
	d="
M103.428253,45.543892 
	C103.437614,45.578075 103.543785,45.495625 103.533028,45.460869 
	C103.522270,45.426113 103.418892,45.509712 103.428253,45.543892 
z"/>
<path fill="#ABABCE" opacity="1.000000" stroke="none" 
	d="
M151.089142,18.911114 
	C150.852219,18.953842 150.660110,18.664116 150.682648,18.491734 
	C150.912140,18.502361 151.119110,18.685373 151.089142,18.911114 
z"/>
<path fill="#222125" opacity="1.000000" stroke="none" 
	d="
M188.390961,109.250023 
	C191.124695,110.838676 193.513947,112.818588 196.184677,114.286354 
	C197.001785,114.735420 198.932236,114.152832 199.763550,113.395691 
	C202.271744,111.111290 204.490250,108.508812 207.371704,106.273071 
	C210.917374,107.942963 213.913010,109.370125 216.908661,110.797287 
	C212.714676,118.577454 208.534744,126.365242 204.319824,134.134048 
	C202.615768,137.274872 200.208328,137.478729 197.290421,135.781631 
	C194.871658,134.374832 192.368042,133.113983 189.564514,131.669067 
	C186.393616,129.597000 183.560211,127.644318 180.379944,125.555962 
	C179.459671,124.949554 178.886230,124.478821 178.134247,123.784668 
	C181.355347,118.855614 184.755035,114.149971 188.390961,109.250023 
z"/>
<path fill="#262929" opacity="1.000000" stroke="none" 
	d="
M139.672150,88.109756 
	C141.283188,90.171516 142.279633,92.646461 143.880508,94.634758 
	C146.290100,97.627472 149.242310,98.232155 152.594086,95.106873 
	C152.188492,99.383926 151.828232,103.863914 150.471237,108.018318 
	C149.906616,109.746925 147.231979,111.813171 145.488647,111.839165 
	C143.768402,111.864830 141.353867,109.871193 140.390503,108.129326 
	C136.891159,101.802078 137.263962,95.047905 139.672150,88.109756 
z"/>
<path fill="#F1F1F1" opacity="1.000000" stroke="none" 
	d="
M216.958557,110.478157 
	C213.913010,109.370125 210.917374,107.942963 207.688446,106.219910 
	C207.558289,105.529541 207.661377,105.135063 208.108337,104.123138 
	C208.648376,99.999580 208.844528,96.493477 209.040695,92.987366 
	C209.040695,92.987366 208.983109,92.988731 209.323761,92.900208 
	C211.408737,91.852417 213.153061,90.893143 214.897385,89.933868 
	C214.897385,89.933868 215.029144,89.466873 215.420776,89.344727 
	C215.852600,90.823662 215.892792,92.424736 215.496262,94.017197 
	C214.770706,97.024208 214.481873,100.039833 214.193024,103.055458 
	C214.193024,104.199173 214.193024,105.342888 214.193024,106.639816 
	C215.457764,106.768532 216.596664,106.884438 218.146820,107.203033 
	C218.041550,108.323494 217.524994,109.241264 216.958557,110.478157 
z"/>
<path fill="#3C3D96" opacity="1.000000" stroke="none" 
	d="
M208.674026,93.111618 
	C208.844528,96.493477 208.648376,99.999580 208.149872,103.818481 
	C208.000809,100.499474 208.154083,96.867676 208.674026,93.111618 
z"/>
<path fill="#3C3D96" opacity="1.000000" stroke="none" 
	d="
M214.641388,89.964958 
	C213.153061,90.893143 211.408737,91.852417 209.328827,92.928558 
	C210.385666,92.049767 211.778091,91.054115 213.521744,90.056557 
	C214.043777,90.035103 214.214584,90.015572 214.641388,89.964958 
z"/>
<path fill="#F2F1F1" opacity="1.000000" stroke="none" 
	d="
M215.932983,94.025818 
	C215.892792,92.424736 215.852600,90.823662 215.489380,89.112030 
	C215.166382,87.528625 215.166382,86.055779 215.166382,84.287994 
	C218.088120,84.287994 221.002472,84.287994 224.283401,84.287994 
	C224.283401,90.329941 224.283401,96.470039 224.283401,103.057388 
	C221.811615,103.057388 219.379730,103.057388 216.446991,102.576248 
	C215.941772,99.405342 215.937378,96.715584 215.932983,94.025818 
z"/>
<path fill="#4A4949" opacity="1.000000" stroke="none" 
	d="
M215.496262,94.017197 
	C215.937378,96.715584 215.941772,99.405342 215.998962,102.541153 
	C215.638779,103.004433 215.225769,103.021675 214.502899,103.047195 
	C214.481873,100.039833 214.770706,97.024208 215.496262,94.017197 
z"/>
</svg>